# AST/ASF file generated using VICON BodyLanguage
# -----------------------------------------------
:version 1.10
:name VICON
:units
  mass 1.0
  length 0.45
  angle deg
:documentation
   .ast/.asf automatically generated from VICON data using
   VICON BodyBuilder and BodyLanguage model FoxedUp or BRILLIANT.MOD
:root
   order TX TY TZ RX RY RZ
   axis XYZ
   position 0 0 0  
   orientation 0 0 0 
:bonedata
  begin
     id 1 
     name lhipjoint
     direction 0.621563 -0.714088 0.322083 
     length 2.21591 
     axis 0 0 0  XYZ
  end
  begin
     id 2 
     name lfemur
     direction 0.34202 -0.939693 0  
     length 6.84027  
     axis 0 0 20  XYZ
    dof rx ry rz
    limits (-160.0 20.0)
           (-70.0 70.0)
           (-60.0 70.0)
  end
  begin
     id 3 
     name ltibia
     direction 0.34202 -0.939693 0   
     length 6.74005   
     axis 0 0 20   XYZ
    dof rx
    limits (-10.0 170.0)
  end
  begin
     id 4 
     name lfoot
     direction 0.0348332 -0.0960526 0.994767   
     length 1.54672   
     axis -90 7.62852e-016 20   XYZ
    dof rx rz
    limits (-45.0 90.0)
           (-70.0 20.0)
  end
  begin
     id 5 
     name ltoes
     direction 1.53538e-011 -4.22089e-011 1   
     length 0.792077   
     axis -90 7.62852e-016 20   XYZ
    dof rx
    limits (-90.0 20.0)
  end
  begin
     id 6 
     name rhipjoint
     direction -0.648389 -0.693984 0.313015   
     length 2.2801  
     axis 0 0 0  XYZ 
  end
  begin
     id 7 
     name rfemur
     direction -0.34202 -0.939693 0   
     length 6.62341   
     axis 0 0 -20   XYZ
    dof rx ry rz
    limits (-160.0 20.0)
           (-70.0 70.0)
           (-70.0 60.0)
  end
  begin
     id 8 
     name rtibia
     direction -0.34202 -0.939693 0   
     length 6.63811   
     axis 0 0 -20   XYZ
    dof rx
    limits (-10.0 170.0)
 end
 begin
     id 9 
     name rfoot
     direction -0.0578404 -0.158915 0.985596   
     length 1.64992  
     axis -90 -7.62852e-016 -20   XYZ
    dof rx rz
    limits (-45.0 90.0)
           (-20.0 70.0)
  end
  begin
     id 10 
     name rtoes
     direction -1.53571e-011 -4.21911e-011 1   
     length 0.839909   
     axis -90 -7.62852e-016 -20   XYZ
    dof rx
    limits (-90.0 20.0)
  end
  begin
     id 11 
     name lowerback
     direction 0.000554472 0.999997 -0.00226605   
     length 1.81878   
     axis 0 0 0   XYZ
    dof rx ry rz
    limits (-20.0 45.0)
           (-30.0 30.0)
           (-30.0 30.0)
  end
  begin
     id 12 
     name upperback
     direction 0.00177008 0.999761 -0.021771   
     length 1.81977   
     axis 0 0 0   XYZ
    dof rx ry rz
    limits (-20.0 45.0)
           (-30.0 30.0)
           (-30.0 30.0)
  end
  begin
     id 13 
     name thorax
     direction 0.00134147 0.999799 -0.0200243   
     length 1.81422   
     axis 0 0 0   XYZ
    dof rx ry rz
    limits (-20.0 45.0)
           (-30.0 30.0)
           (-30.0 30.0)
  end
  begin
     id 14 
     name lowerneck
     direction -0.0819714 0.987506 0.134583   
     length 1.68295   
     axis 0 0 0   XYZ
    dof rx ry rz
    limits (-20.0 45.0)
           (-30.0 30.0)
           (-30.0 30.0)
  end
  begin
     id 15 
     name upperneck
     direction 0.0867129 0.969666 -0.228538   
     length 1.71188   
     axis 0 0 0   XYZ
    dof rx ry rz
    limits (-20.0 45.0)
           (-30.0 30.0)
           (-30.0 30.0)
  end
  begin
     id 16
     name head
     direction 0.023699 0.995021 -0.0968101  
     length 1.73365  
     axis 0 0 0   XYZ
    dof rx ry rz
    limits (-20.0 45.0)
           (-30.0 30.0)
           (-30.0 30.0)
  end
  begin
     id 17 
     name lclavicle
     direction 0.912847 0.398248 0.090054  
     length 3.56518  
     axis 0 0 0   XYZ
    dof ry rz
    limits (-20.0 10.0)
           (0.0 20.0)
  end
  begin
     id 18 
     name lhumerus
     direction 1 -4.48961e-011 -4.05442e-028   
     length 4.05444   
     axis 180 -30 -90   XYZ
    dof rx ry rz
    limits (-60.0 90.0)
           (-90.0 90.0)
           (-90.0 90.0)
  end
  begin
     id 19
     name lradius
     direction 1 -4.4897e-011 1.54979e-027   
     length 3.21205   
     axis 180 -30 -90   XYZ
    dof rx
    limits (-10.0 170.0)
  end
  begin
     id 20
     name lwrist
     direction 1 -4.48979e-011 1.55564e-027   
     length 1.60602   
     axis -1.61768e-015 90 90   XYZ
    dof ry
    limits (-180.0 0.0)
 end
  begin
     id 21 
     name lhand
     direction 1 -4.48877e-011 3.11128e-027   
     length 0.707407   
     axis -1.98526e-015 90 90   XYZ
    dof rx rz
    limits (-90.0 90.0)
           (-45.0 45.0)
  end
  begin
     id 22 
     name lfingers
     direction 1 -4.49016e-011 6.22255e-027   
     length 0.57033   
     axis -3.97052e-015 90 90   XYZ
    dof rx
    limits (0.0 90.0)
  end
  begin
     id 23
     name lthumb
     direction 0.707107 -6.35011e-011 0.707107   
     length 0.818883   
     axis -90 45 2.85299e-015   XYZ
    dof rx rz
    limits (-45.0 45.0)
           (-45.0 45.0)
  end
  begin
     id 24 
     name rclavicle
     direction -0.930415 0.353791 0.0957082   
     length 3.54688  
     axis 0 0 0   XYZ 
    dof ry rz
    limits (-10.0 20.0)
           (-20.0 0.0)
  end
  begin
     id 25 
     name rhumerus
     direction -1 -4.48952e-011 -8.4136e-018  
     length 3.74048   
     axis 180 30 90   XYZ
    dof rx ry rz
    limits (-90.0 60.0)
           (-90.0 90.0)
           (-90.0 90.0)
  end
  begin
     id 26 
     name rradius
     direction -1 -4.48964e-011 1.66692e-027   
     length 3.1603   
     axis 180 30 90   XYZ
    dof rx
    limits (-10.0 170.0)
  end
  begin
     id 27 
     name rwrist
     direction -1 -4.49008e-011 1.55564e-027   
     length 1.58015   
     axis -1.61768e-015 -90 -90   XYZ
    dof ry
    limits (-180.0 0.0)
  end
  begin
     id 28
     name rhand
     direction -1 -4.48922e-011 3.11128e-027   
     length 0.717028   
     axis -1.98526e-015 -90 -90   XYZ
    dof rx rz
    limits (-90.0 90.0)
           (-45.0 45.0)
  end
  begin
     id 29
     name rfingers
     direction -1 -4.49002e-011 6.22255e-027   
     length 0.578086   
     axis -3.97052e-015 -90 -90   XYZ
    dof rx
    limits (0.0 90.0)
  end
  begin
     id 30
     name rthumb
     direction -0.707107 -6.34899e-011 0.707107   
     length 0.83002   
     axis -90 -45 -2.85299e-015   XYZ
    dof rx rz
    limits (-45.0 45.0)
           (-45.0 45.0)
  end
:hierarchy
  begin
    root lhipjoint rhipjoint lowerback
    lhipjoint lfemur
    lfemur ltibia
    ltibia lfoot
    lfoot ltoes
    rhipjoint rfemur
    rfemur rtibia
    rtibia rfoot
    rfoot rtoes
    lowerback upperback
    upperback thorax
    thorax lowerneck lclavicle rclavicle
    lowerneck upperneck
    upperneck head
    lclavicle lhumerus
    lhumerus lradius
    lradius lwrist
    lwrist lhand lthumb
    lhand lfingers
    rclavicle rhumerus
    rhumerus rradius
    rradius rwrist
    rwrist rhand rthumb
    rhand rfingers
  end

#!OML:ASF G:\acrobat\cartwheel_test\acrobat_wednesday\Session 1\acrobatwednesday.ASF
:FULLY-SPECIFIED
:DEGREES
17
root 18.8084 16.4481 0.258216 87.5879 86.7039 79.3316
lowerback -8.21643 -0.757961 -2.15453
upperback 0.24099 -0.757847 -0.609469
thorax 4.88256 -0.415181 0.485299
lowerneck -12.777 -16.6039 -15.1983
upperneck 18.2919 -22.2702 11.2533
head 10.9868 -10.2681 2.86544
rclavicle 1.68967e-015 -9.54166e-015
rhumerus -33.4583 -22.8434 -74.2419
rradius 23.3745
rwrist 37.1733
rhand -20.342 7.1913
rfingers 7.12502
rthumb 6.00961 -22.7035
lclavicle 1.68967e-015 -9.54166e-015
lhumerus -26.0261 15.67 76.1986
lradius 17.334
lwrist 9.75682
lhand -21.1679 -14.9661
lfingers 7.12502
lthumb 5.21224 14.9498
rfemur 3.09427 17.0457 20.7375
rtibia -2.16712
rfoot -31.3543 18.8747
rtoes 6.092
lfemur -1.70357 -4.84717 -25.0123
ltibia 3.45892
lfoot 14.7926 -9.24549
ltoes -32.862
18
root 18.8025 16.4496 0.25853 86.3913 86.709 78.1537
lowerback -8.16933 -0.739638 -2.11575
upperback 0.228161 -0.73906 -0.605156
thorax 4.84165 -0.404647 0.471006
lowerneck -12.7264 -16.5969 -15.1759
upperneck 18.2822 -22.2623 11.223
head 10.9659 -10.2692 2.85841
rclavicle 5.90142e-015 -5.96354e-016
rhumerus -33.5258 -22.7062 -74.294
rradius 23.4296
rwrist 36.9541
rhand -20.5448 7.59311
rfingers 7.12502
rthumb 5.81382 -22.3071
lclavicle 5.90142e-015 -5.96354e-016
lhumerus -26.0826 15.6461 76.176
lradius 17.388
lwrist 9.77896
lhand -21.0728 -15.2454
lfingers 7.12502
lthumb 5.3041 14.6682
rfemur 3.06042 17.1158 20.7488
rtibia -2.1314
rfoot -31.4005 18.7635
rtoes 6.28041
lfemur -1.72035 -4.80581 -24.9852
ltibia 3.49321
lfoot 14.8615 -9.23647
ltoes -32.8598
19
root 18.7982 16.4494 0.259009 84.9348 86.7295 76.6647
lowerback -8.17172 -0.745133 -2.07936
upperback 0.188198 -0.752077 -0.57034
thorax 4.80154 -0.410021 0.485459
lowerneck -12.6145 -16.5611 -15.2105
upperneck 18.2214 -22.2155 11.2405
head 10.9234 -10.256 2.88818
rclavicle 8.99501e-015 7.55382e-015
rhumerus -33.6263 -22.4298 -74.3641
rradius 23.5166
rwrist 36.5941
rhand -20.8904 8.11096
rfingers 7.12502
rthumb 5.48012 -21.7982
lclavicle 8.99501e-015 7.55382e-015
lhumerus -26.2117 15.5964 76.1788
lradius 17.5011
lwrist 9.88557
lhand -21.0169 -15.2327
lfingers 7.12502
lthumb 5.35806 14.6795
rfemur 3.01449 17.2485 20.7752
rtibia -2.17214
rfoot -31.56 18.5572
rtoes 6.59397
lfemur -1.7789 -4.75037 -24.9236
ltibia 3.52913
lfoot 14.9311 -9.20359
ltoes -32.8581
20
root 18.7935 16.4491 0.260159 84.1356 86.6934 75.8414
lowerback -8.13401 -0.747684 -2.12013
upperback 0.13946 -0.753351 -0.562168
thorax 4.73014 -0.410689 0.517589
lowerneck -12.4511 -16.5169 -15.3479
upperneck 18.1007 -22.1836 11.448
head 10.8909 -10.2404 2.99574
rclavicle 1.15295e-014 1.59028e-014
rhumerus -33.753 -22.3258 -74.3614
rradius 23.5787
rwrist 36.6095
rhand -20.7711 7.981
rfingers 7.12502
rthumb 5.59534 -21.9251
lclavicle 1.15295e-014 1.59028e-014
lhumerus -26.3123 15.4346 76.2291
lradius 17.6273
lwrist 10.0257
lhand -20.9532 -14.9473
lfingers 7.12502
lthumb 5.41955 14.9634
rfemur 3.01606 17.445 20.7506
rtibia -2.27886
rfoot -31.8547 18.3844
rtoes 7.0664
lfemur -1.84317 -4.72938 -24.9349
ltibia 3.57637
lfoot 14.9777 -9.20129
ltoes -32.9521
21
root 18.7871 16.4494 0.261071 83.3301 86.6392 75.0302
lowerback -8.06924 -0.729193 -2.16193
upperback 0.104752 -0.726214 -0.574036
thorax 4.65719 -0.397163 0.53311
lowerneck -12.2991 -16.5017 -15.6017
upperneck 18.0064 -22.2097 11.8086
head 10.9143 -10.2409 3.15509
rclavicle -5.32991e-015 -1.5704e-014
rhumerus -33.9455 -22.3837 -74.3028
rradius 23.7043
rwrist 36.848
rhand -20.2493 7.42207
rfingers 7.12502
rthumb 6.09914 -22.4701
lclavicle -5.32991e-015 -1.5704e-014
lhumerus -26.3566 15.1935 76.3154
lradius 17.7047
lwrist 10.1439
lhand -20.9902 -14.8115
lfingers 7.12502
lthumb 5.38383 15.1001
rfemur 2.97036 17.5572 20.7007
rtibia -2.26221
rfoot -31.9905 18.2929
rtoes 7.63761
lfemur -1.89967 -4.72677 -24.9797
ltibia 3.61549
lfoot 15.0098 -9.19211
ltoes -33.0461
22
root 18.7822 16.4496 0.260665 81.4419 86.5845 73.1475
lowerback -8.06788 -0.707136 -2.17704
upperback 0.114849 -0.695655 -0.569306
thorax 4.66641 -0.382661 0.550116
lowerneck -12.3063 -16.5021 -15.7119
upperneck 18.0247 -22.2184 11.9258
head 10.9538 -10.2386 3.20526
rclavicle 2.48481e-015 -8.15017e-015
rhumerus -34.0278 -22.4676 -74.2496
rradius 23.7576
rwrist 37.0194
rhand -20.0016 7.32548
rfingers 7.12502
rthumb 6.33829 -22.5597
lclavicle 2.48481e-015 -8.15017e-015
lhumerus -26.3461 14.9574 76.4152
lradius 17.718
lwrist 10.3347
lhand -21.0908 -14.8712
lfingers 7.12502
lthumb 5.28666 15.0429
rfemur 2.85264 17.4471 20.6256
rtibia -2.09838
rfoot -31.7135 18.2906
rtoes 7.49129
lfemur -1.91133 -4.666 -25.0203
ltibia 3.63365
lfoot 15.0742 -9.15317
ltoes -33.0759
23
root 18.7793 16.4495 0.260306 79.1938 86.5488 70.9136
lowerback -8.10043 -0.691765 -2.16538
upperback 0.14706 -0.67604 -0.553166
thorax 4.71787 -0.373693 0.562061
lowerneck -12.3732 -16.4853 -15.6917
upperneck 18.0288 -22.1804 11.8879
head 10.9541 -10.2208 3.19305
rclavicle -2.93207e-015 4.17448e-015
rhumerus -33.9492 -22.6253 -74.1831
rradius 23.6325
rwrist 37.2642
rhand -19.9748 7.51277
rfingers 7.12502
rthumb 6.36416 -22.3716
lclavicle -2.93207e-015 4.17448e-015
lhumerus -26.2936 14.94 76.443
lradius 17.657
lwrist 10.364
lhand -21.0781 -14.8632
lfingers 7.12502
lthumb 5.2989 15.0505
rfemur 2.73555 17.229 20.5684
rtibia -1.92129
rfoot -31.1798 18.4412
rtoes 6.67849
lfemur -1.87966 -4.61275 -25.028
ltibia 3.60178
lfoot 15.1492 -9.16891
ltoes -33.0797
24
root 18.7764 16.4496 0.260139 78.1896 86.5311 69.9189
lowerback -8.10203 -0.692714 -2.17345
upperback 0.168595 -0.677488 -0.53296
thorax 4.74163 -0.375343 0.5872
lowerneck -12.4484 -16.4748 -15.7019
upperneck 18.0037 -22.1561 11.9101
head 10.9593 -10.2054 3.20164
rclavicle -4.52235e-015 2.06736e-014
rhumerus -33.9146 -22.6897 -74.1592
rradius 23.568
rwrist 37.311
rhand -20.018 7.64636
rfingers 7.12502
rthumb 6.3224 -22.2393
lclavicle -4.52235e-015 2.06736e-014
lhumerus -26.2476 14.9051 76.4947
lradius 17.6202
lwrist 10.3412
lhand -21.021 -14.7382
lfingers 7.12502
lthumb 5.35408 15.1741
rfemur 2.68037 17.0611 20.5293
rtibia -1.85571
rfoot -30.8586 18.4735
rtoes 6.4828
lfemur -1.85804 -4.65276 -25.0393
ltibia 3.56905
lfoot 15.2131 -9.22735
ltoes -33.1574
25
root 18.7723 16.4495 0.258567 78.1591 86.5047 69.8838
lowerback -8.06599 -0.695732 -2.19981
upperback 0.163542 -0.680791 -0.520662
thorax 4.71663 -0.377552 0.614802
lowerneck -12.4579 -16.481 -15.7252
upperneck 17.9775 -22.1655 11.9487
head 10.961 -10.2073 3.21508
rclavicle 3.21783e-015 5.96354e-015
rhumerus -34.0202 -22.6565 -74.144
rradius 23.576
rwrist 37.1302
rhand -20.4417 7.98314
rfingers 7.12502
rthumb 5.91336 -21.9143
lclavicle 3.21783e-015 5.96354e-015
lhumerus -26.2763 14.5611 76.6463
lradius 17.672
lwrist 10.51
lhand -21.0569 -14.6967
lfingers 7.12502
lthumb 5.31943 15.2166
rfemur 2.67702 16.9833 20.4736
rtibia -1.90664
rfoot -30.8297 18.3831
rtoes 6.58996
lfemur -1.88008 -4.66457 -25.0815
ltibia 3.59379
lfoot 15.251 -9.24516
ltoes -33.2822
26
root 18.7685 16.4495 0.256171 77.8868 86.4573 69.6112
lowerback -8.01534 -0.690358 -2.21873
upperback 0.152231 -0.673206 -0.5255
thorax 4.67628 -0.373758 0.621954
lowerneck -12.4009 -16.4912 -15.7327
upperneck 17.9509 -22.1906 11.9798
head 10.9499 -10.2195 3.22576
rclavicle -6.36111e-015 -7.95139e-016
rhumerus -34.1536 -22.6617 -74.0853
rradius 23.5772
rwrist 37.0818
rhand -20.6647 8.15184
rfingers 7.12502
rthumb 5.69813 -21.7516
lclavicle -6.36111e-015 -7.95139e-016
lhumerus -26.3245 14.1298 76.8082
lradius 17.6949
lwrist 10.6201
lhand -21.2457 -14.7915
lfingers 7.12502
lthumb 5.13709 15.1262
rfemur 2.738 17.1221 20.4357
rtibia -2.04335
rfoot -30.9916 18.3914
rtoes 6.54546
lfemur -1.8993 -4.61697 -25.1442
ltibia 3.6109
lfoot 15.2497 -9.20538
ltoes -33.4078
27
root 18.766 16.4505 0.254638 77.3247 86.405 69.0726
lowerback -7.95784 -0.68615 -2.23575
upperback 0.155728 -0.666901 -0.541596
thorax 4.64739 -0.370658 0.61614
lowerneck -12.4366 -16.5147 -15.6712
upperneck 17.9865 -22.2226 11.925
head 10.9589 -10.2327 3.18964
rclavicle -2.95692e-015 7.15625e-015
rhumerus -34.2368 -22.6642 -74.0605
rradius 23.6191
rwrist 37.1471
rhand -20.3158 7.76587
rfingers 7.12502
rthumb 6.03494 -22.1282
lclavicle -2.95692e-015 7.15625e-015
lhumerus -26.2975 13.8123 76.9335
lradius 17.629
lwrist 10.5827
lhand -21.3982 -14.7352
lfingers 7.12502
lthumb 4.98985 15.186
rfemur 2.80323 17.2872 20.4157
rtibia -2.12355
rfoot -31.2023 18.2956
rtoes 6.77929
lfemur -1.86218 -4.63827 -25.2107
ltibia 3.58268
lfoot 15.2877 -9.16682
ltoes -33.5824
28
root 18.7641 16.4512 0.253734 76.839 86.4275 68.5978
lowerback -7.93694 -0.680224 -2.18522
upperback 0.162029 -0.664717 -0.536568
thorax 4.64154 -0.368559 0.593403
lowerneck -12.5492 -16.5514 -15.5772
upperneck 18.0822 -22.258 11.794
head 10.9896 -10.2475 3.11636
rclavicle -4.93234e-015 -1.78906e-015
rhumerus -34.3047 -22.7781 -74.0036
rradius 23.6359
rwrist 37.2004
rhand -20.1301 7.58773
rfingers 7.12502
rthumb 6.21425 -22.3011
lclavicle -4.93234e-015 -1.78906e-015
lhumerus -26.257 13.565 77.0464
lradius 17.5861
lwrist 10.5731
lhand -21.2349 -14.5301
lfingers 7.12502
lthumb 5.14756 15.3874
rfemur 2.79554 17.2577 20.4565
rtibia -2.08206
rfoot -31.1635 18.2587
rtoes 6.75921
lfemur -1.82529 -4.73072 -25.1873
ltibia 3.53613
lfoot 15.3394 -9.20039
ltoes -33.7439
29
root 18.7619 16.4511 0.252666 76.3634 86.4873 68.1214
lowerback -7.94712 -0.678474 -2.09342
upperback 0.169795 -0.671897 -0.515786
thorax 4.65465 -0.370515 0.562372
lowerneck -12.6482 -16.564 -15.5013
upperneck 18.179 -22.2593 11.6727
head 11.017 -10.2478 3.05703
rclavicle -2.21148e-015 1.09332e-014
rhumerus -34.3591 -23.0766 -73.8523
rradius 23.5443
rwrist 37.358
rhand -20.2733 7.84522
rfingers 7.12502
rthumb 6.07595 -22.0477
lclavicle -2.21148e-015 1.09332e-014
lhumerus -26.269 13.4025 77.1281
lradius 17.5786
lwrist 10.5223
lhand -21.0216 -14.3505
lfingers 7.12502
lthumb 5.35352 15.5619
rfemur 2.82297 17.2358 20.5443
rtibia -2.1111
rfoot -31.0506 18.4064
rtoes 6.33788
lfemur -1.82242 -4.73489 -25.109
ltibia 3.51708
lfoot 15.3325 -9.22901
ltoes -33.8273
30
root 18.7587 16.4509 0.250961 75.4968 86.4704 67.2349
lowerback -7.95615 -0.690834 -2.06263
upperback 0.150287 -0.691828 -0.5028
thorax 4.63966 -0.379526 0.55624
lowerneck -12.6607 -16.5344 -15.5157
upperneck 18.2534 -22.2104 11.6319
head 11.0358 -10.228 3.05363
rclavicle 5.51627e-015 -8.54774e-015
rhumerus -34.3713 -23.4627 -73.6307
rradius 23.3118
rwrist 37.8489
rhand -20.4016 8.01723
rfingers 7.12502
rthumb 5.95209 -21.8792
lclavicle 5.51627e-015 -8.54774e-015
lhumerus -26.3514 13.3847 77.1578
lradius 17.5494
lwrist 10.4137
lhand -21.0781 -14.2646
lfingers 7.12502
lthumb 5.29889 15.6491
rfemur 2.83614 17.2552 20.5391
rtibia -2.19294
rfoot -30.9545 18.5401
rtoes 6.28106
lfemur -1.86366 -4.65464 -25.1096
ltibia 3.52649
lfoot 15.375 -9.22238
ltoes -33.8849
31
root 18.7537 16.4501 0.248335 73.5149 86.3816 65.1805
lowerback -8.00944 -0.702173 -2.08777
upperback 0.118564 -0.70449 -0.477461
thorax 4.63757 -0.386298 0.59483
lowerneck -12.6537 -16.4815 -15.6067
upperneck 18.2994 -22.131 11.6697
head 11.0567 -10.193 3.0946
rclavicle 1.59773e-014 2.18663e-015
rhumerus -34.3625 -23.6354 -73.478
rradius 23.1534
rwrist 38.2986
rhand -20.3749 7.83286
rfingers 7.12502
rthumb 5.97783 -22.0628
lclavicle 1.59773e-014 2.18663e-015
lhumerus -26.466 13.4742 77.1802
lradius 17.5507
lwrist 10.3802
lhand -21.167 -14.3712
lfingers 7.12502
lthumb 5.21306 15.5447
rfemur 2.69302 17.3117 20.4314
rtibia -2.1788
rfoot -30.7952 18.6217
rtoes 6.70688
lfemur -1.96239 -4.6593 -25.1745
ltibia 3.53729
lfoot 15.5463 -9.281
ltoes -33.946
